<?xml version="1.0" standalone="no"?>
<!DOCTYPE svg PUBLIC "-//W3C//DTD SVG 20010904//EN"
 "http://www.w3.org/TR/2001/REC-SVG-20010904/DTD/svg10.dtd">
<svg version="1.0" xmlns="http://www.w3.org/2000/svg"
 width="255.000000pt" height="256.000000pt" viewBox="0 0 255.000000 256.000000"
 preserveAspectRatio="xMidYMid meet">

<g transform="translate(0.000000,256.000000) scale(0.100000,-0.100000)"
fill="#000000" stroke="none">
<path d="M1104 2546 c-268 -61 -482 -255 -578 -524 -30 -84 -31 -93 -31 -247
0 -149 2 -166 28 -240 45 -129 102 -220 197 -315 95 -95 186 -152 315 -197 75
-26 91 -28 240 -28 149 0 165 2 240 28 129 45 220 102 315 197 95 95 152 186
197 315 26 75 28 91 28 240 0 149 -2 165 -28 240 -45 129 -102 220 -197 315
-95 95 -188 153 -315 196 -68 23 -100 28 -215 30 -91 3 -155 -1 -196 -10z"/>
</g>
</svg>
