<?xml version="1.0" standalone="no"?>
<!DOCTYPE svg PUBLIC "-//W3C//DTD SVG 20010904//EN"
 "http://www.w3.org/TR/2001/REC-SVG-20010904/DTD/svg10.dtd">
<svg version="1.0" xmlns="http://www.w3.org/2000/svg"
 width="1255.000000pt" height="878.000000pt" viewBox="0 0 1255.000000 878.000000"
 preserveAspectRatio="xMidYMid meet">

<g transform="translate(0.000000,878.000000) scale(0.100000,-0.100000)"
fill="#000000" stroke="none">
<path d="M6394 8766 c-268 -61 -482 -255 -578 -524 -30 -84 -31 -93 -31 -247
0 -149 2 -166 28 -240 45 -129 102 -220 197 -315 95 -95 186 -152 315 -197 75
-26 91 -28 240 -28 149 0 165 2 240 28 129 45 220 102 315 197 95 95 152 186
197 315 26 75 28 91 28 240 0 149 -2 165 -28 240 -45 129 -102 220 -197 315
-95 95 -188 153 -315 196 -68 23 -100 28 -215 30 -91 3 -155 -1 -196 -10z"/>
<path d="M9191 8079 c-22 -9 -23 -12 -15 -62 5 -28 9 -90 8 -137 -1 -150 -59
-290 -308 -740 -111 -201 -310 -599 -386 -775 -29 -66 -95 -228 -147 -360
-204 -520 -260 -659 -360 -895 -178 -417 -321 -677 -481 -872 -74 -91 -150
-162 -270 -252 -50 -39 -95 -79 -98 -89 -20 -63 136 -43 301 38 426 210 854
823 1170 1675 68 185 111 288 198 475 150 326 232 497 294 615 l65 126 121
-12 c362 -37 512 -98 716 -290 125 -118 222 -246 610 -809 267 -386 540 -724
684 -846 193 -163 359 -203 847 -204 261 0 289 2 328 19 78 35 91 96 41 194
-55 112 -165 197 -534 414 -679 400 -939 612 -1453 1181 -401 445 -506 511
-1069 678 l-73 21 47 61 c26 34 102 118 168 187 130 135 165 190 165 261 0 79
-79 182 -215 282 -110 80 -291 139 -354 116z"/>
<path d="M3365 7761 c-45 -12 -107 -46 -131 -73 -26 -29 -134 -202 -134 -214
0 -5 21 -21 46 -36 67 -41 80 -79 66 -193 -10 -79 -58 -264 -76 -293 -3 -5
-18 -13 -33 -17 -16 -3 -131 -46 -258 -95 -259 -99 -354 -128 -450 -137 -36
-3 -68 -10 -71 -15 -3 -5 -3 -26 1 -45 9 -49 119 -158 200 -198 54 -27 70 -30
150 -29 74 0 106 6 180 31 50 17 92 29 94 27 3 -2 -26 -82 -64 -176 -91 -230
-366 -782 -447 -900 -10 -14 -18 -36 -18 -48 0 -20 4 -22 33 -16 119 23 287
169 493 426 175 219 278 380 483 758 68 125 78 137 150 194 107 85 210 128
312 128 64 0 118 -40 149 -111 21 -49 22 -64 17 -160 -9 -156 -78 -410 -158
-587 -44 -96 -106 -187 -156 -232 -42 -37 -50 -40 -104 -40 -78 0 -138 24
-299 120 -126 75 -150 87 -150 75 0 -4 60 -129 263 -545 93 -192 124 -235 174
-249 53 -15 77 -6 179 65 85 59 93 62 107 46 8 -9 17 -44 21 -78 l7 -61 -79
-31 c-106 -42 -321 -106 -407 -121 -38 -7 -80 -15 -92 -17 -17 -3 -23 -11 -23
-31 0 -80 54 -160 141 -208 49 -27 62 -30 149 -30 52 0 114 3 136 7 l42 8 -43
-123 c-146 -417 -351 -838 -565 -1157 -95 -141 -216 -300 -277 -363 l-58 -60
35 7 c55 11 228 100 305 158 211 157 442 457 668 866 106 193 249 490 328 680
l63 154 66 33 c89 45 186 84 238 95 58 14 106 -7 129 -55 15 -32 16 -47 5
-143 -30 -268 -201 -899 -312 -1152 -59 -135 -139 -278 -180 -321 -43 -45 -99
-57 -175 -36 -64 16 -199 90 -289 156 -95 71 -108 57 -55 -57 17 -37 85 -191
151 -342 211 -484 206 -477 278 -467 95 12 282 186 411 381 154 234 238 448
459 1175 97 321 125 403 204 591 20 47 36 99 36 117 0 98 -196 346 -355 449
-91 59 -148 59 -340 1 -83 -24 -165 -47 -182 -50 l-33 -6 0 43 c0 35 -7 54
-33 88 -41 53 -141 108 -198 108 -21 0 -39 2 -39 5 0 3 14 27 30 53 53 86 156
310 258 562 55 135 126 297 157 359 90 177 88 254 -10 401 -25 38 -71 92 -101
118 -65 58 -216 144 -293 166 -78 23 -188 20 -326 -9 -65 -13 -120 -23 -122
-21 -1 1 11 45 27 97 78 250 61 400 -59 512 -80 75 -170 107 -246 88z"/>
<path d="M1081 7431 c-12 -8 -8 -52 27 -283 64 -420 65 -429 66 -658 0 -185
-14 -444 -30 -517 -7 -35 -497 -372 -688 -473 -137 -72 -209 -92 -339 -92
-125 0 -130 -4 -98 -71 47 -98 226 -253 367 -319 62 -29 79 -33 159 -33 81 0
97 3 158 32 81 39 216 130 316 214 l74 62 -7 -99 c-3 -54 -15 -301 -26 -549
-21 -453 -33 -589 -84 -875 -35 -202 -49 -360 -42 -460 15 -195 58 -382 118
-512 51 -113 85 -125 126 -47 47 93 111 508 132 864 5 99 19 335 31 525 11
190 30 558 43 819 l23 474 24 18 c13 11 101 58 196 104 95 47 186 97 202 111
67 56 80 179 27 249 -15 20 -44 46 -64 59 -44 27 -223 101 -269 111 -25 5 -33
12 -33 27 0 12 16 118 35 237 63 399 80 609 54 678 -20 54 -62 104 -128 150
-36 26 -91 70 -121 99 -62 58 -206 164 -224 164 -6 0 -17 -4 -25 -9z"/>
<path d="M9590 6037 c-25 -13 -89 -49 -143 -79 -173 -98 -410 -179 -622 -211
-99 -16 -102 -25 -51 -133 47 -98 128 -185 213 -225 l64 -31 -37 -46 c-103
-128 -274 -319 -378 -421 l-116 -114 88 6 c151 9 241 52 566 269 380 254 515
324 737 383 163 42 207 66 237 125 26 52 23 80 -16 153 -28 53 -150 173 -247
245 -133 98 -218 121 -295 79z"/>
<path d="M2149 5305 c-31 -17 -59 -70 -59 -112 0 -22 14 -42 55 -83 63 -63 91
-122 82 -177 -4 -20 -21 -74 -39 -120 l-32 -82 -56 -22 c-30 -12 -118 -54
-194 -93 -136 -69 -142 -71 -229 -76 -102 -6 -114 -14 -103 -72 9 -47 74 -120
134 -150 38 -18 62 -22 127 -21 44 0 101 8 128 16 26 8 47 14 47 13 0 -13 -51
-143 -113 -291 -134 -316 -379 -795 -489 -958 -22 -32 -40 -70 -41 -85 -2 -23
1 -27 23 -24 104 11 384 287 582 572 163 235 350 585 457 855 l60 150 60 27
c181 81 270 97 309 55 44 -47 24 -208 -68 -547 -128 -471 -218 -657 -335 -689
-87 -24 -100 -18 -221 100 -92 89 -114 103 -114 72 0 -17 117 -584 150 -726
21 -90 40 -117 85 -117 59 0 224 125 336 255 70 81 160 211 211 305 71 129
227 566 319 895 28 99 64 224 80 279 47 159 37 227 -47 325 -28 32 -67 57
-168 106 -193 95 -272 101 -414 35 -64 -30 -64 -30 -58 -8 3 13 9 51 13 85 5
55 3 67 -20 106 -40 68 -154 137 -325 195 -72 25 -97 27 -133 7z"/>
<path d="M9886 4969 c-21 -11 -72 -42 -114 -68 -306 -191 -881 -431 -1205
-503 -84 -18 -130 -22 -257 -21 -85 0 -168 2 -185 4 -29 4 -30 3 -29 -37 1
-57 33 -118 105 -197 79 -88 251 -225 335 -268 58 -29 76 -33 138 -33 80 1
186 35 341 109 50 24 91 42 93 41 4 -5 -138 -207 -230 -328 -115 -151 -233
-282 -348 -387 -98 -90 -130 -131 -130 -169 0 -43 100 -258 187 -404 59 -100
122 -133 200 -107 21 6 83 42 138 79 242 163 461 261 860 385 162 50 393 110
466 120 l45 7 101 -209 c55 -115 113 -223 128 -241 65 -77 170 -108 207 -60
66 84 127 535 99 728 -34 227 -111 323 -359 445 -139 69 -438 165 -462 150 -6
-3 -10 -34 -10 -68 1 -73 21 -127 103 -272 52 -91 55 -100 37 -103 -32 -5
-953 -239 -975 -248 -18 -7 -17 -5 5 22 205 242 701 817 769 892 71 78 100
103 138 117 170 63 336 182 349 250 13 73 -58 167 -216 285 -149 111 -238 135
-324 89z"/>
<path d="M1190 1995 c-104 -30 -185 -98 -237 -198 -38 -75 -44 -198 -13 -281
54 -143 213 -229 390 -212 109 11 220 73 220 123 l0 25 -39 -35 c-57 -51 -97
-69 -168 -75 -145 -11 -219 63 -244 244 -13 97 2 199 39 268 92 171 326 149
397 -37 10 -26 22 -47 26 -47 5 0 9 54 9 120 0 120 -7 142 -28 95 -14 -30 -31
-31 -108 -4 -80 27 -175 33 -244 14z"/>
<path d="M4800 1997 c-94 -27 -172 -96 -217 -192 -22 -49 -27 -74 -28 -140 0
-187 107 -322 281 -355 180 -34 340 43 413 199 22 48 26 69 26 151 0 81 -4
103 -26 150 -33 70 -99 136 -168 168 -66 30 -208 40 -281 19z m201 -49 c21
-14 45 -46 63 -80 24 -50 29 -73 34 -167 11 -234 -51 -361 -177 -361 -98 0
-159 69 -182 205 -12 74 -7 215 11 276 36 126 159 187 251 127z"/>
<path d="M7950 1997 c-94 -27 -172 -96 -217 -192 -22 -49 -27 -74 -28 -140 0
-187 107 -322 281 -355 180 -34 340 43 413 199 22 48 26 69 26 151 0 81 -4
103 -26 150 -33 70 -99 136 -168 168 -66 30 -208 40 -281 19z m201 -49 c21
-14 45 -46 63 -80 24 -50 29 -73 34 -167 11 -234 -51 -361 -177 -361 -98 0
-159 69 -182 205 -12 74 -7 215 11 276 36 126 159 187 251 127z"/>
<path d="M11300 1997 c-94 -27 -172 -96 -217 -192 -22 -49 -27 -74 -28 -140 0
-187 107 -322 281 -355 180 -34 340 43 413 199 22 48 26 69 26 151 0 81 -4
103 -26 150 -33 70 -99 136 -168 168 -66 30 -208 40 -281 19z m201 -49 c21
-14 45 -46 63 -80 24 -50 29 -73 34 -167 11 -234 -51 -361 -177 -361 -98 0
-159 69 -182 205 -12 74 -7 215 11 276 36 126 159 187 251 127z"/>
<path d="M1650 1990 c0 -5 13 -10 28 -10 61 0 62 -7 62 -327 0 -268 -1 -291
-18 -306 -10 -10 -31 -17 -45 -17 -15 0 -27 -4 -27 -10 0 -6 105 -10 294 -10
l293 0 12 93 c7 50 15 100 17 110 11 36 -12 15 -29 -28 -23 -54 -83 -110 -134
-124 -61 -17 -168 -14 -184 5 -9 11 -15 57 -17 145 l-4 129 37 0 c50 0 102
-50 111 -109 15 -92 24 -43 24 129 0 118 -3 179 -10 175 -5 -3 -10 -16 -10
-27 0 -36 -39 -104 -66 -116 -14 -7 -38 -12 -54 -12 l-30 0 0 140 0 140 85 0
c50 0 99 -6 118 -14 43 -17 85 -68 93 -111 12 -66 24 -35 24 65 l0 100 -285 0
c-183 0 -285 -4 -285 -10z"/>
<path d="M2330 1990 c0 -5 9 -10 19 -10 11 0 33 -12 50 -26 l31 -26 0 -274 0
-275 -25 -24 c-13 -14 -36 -25 -50 -25 -14 0 -25 -4 -25 -10 0 -6 47 -10 120
-10 73 0 120 4 120 10 0 6 -11 10 -24 10 -14 0 -37 10 -51 23 l-26 22 3 245 3
244 228 -279 c126 -154 233 -281 238 -283 5 -2 9 122 9 313 l0 316 25 24 c13
14 33 25 45 25 11 0 20 5 20 10 0 6 -43 10 -110 10 -67 0 -110 -4 -110 -10 0
-5 9 -10 19 -10 11 0 32 -11 48 -24 l28 -24 3 -176 c3 -97 0 -176 -4 -175 -5
0 -83 94 -174 209 l-165 209 -122 0 c-76 1 -123 -3 -123 -9z"/>
<path d="M3111 1903 c0 -77 3 -93 11 -73 42 104 73 130 156 130 l52 0 0 -299
c0 -329 0 -331 -61 -331 -16 0 -29 -4 -29 -10 0 -6 65 -10 175 -10 110 0 175
4 175 10 0 6 -13 10 -28 10 -61 0 -62 6 -62 333 l0 297 50 0 c76 0 107 -21
140 -93 l29 -62 1 98 0 97 -305 0 -305 0 1 -97z"/>
<path d="M3780 1990 c0 -5 14 -10 30 -10 17 0 39 -9 50 -20 20 -20 21 -30 18
-311 -3 -274 -4 -291 -22 -305 -11 -8 -32 -14 -48 -14 -15 0 -28 -4 -28 -10 0
-6 65 -10 175 -10 110 0 175 4 175 10 0 6 -13 10 -28 10 -59 0 -66 15 -70 159
l-4 131 28 0 c26 0 41 -16 139 -155 l110 -154 108 -1 c101 0 137 10 82 24 -24
6 -49 37 -198 243 l-38 52 38 16 c74 31 113 88 113 165 0 94 -70 164 -181 180
-88 13 -449 13 -449 0z m400 -48 c43 -21 70 -72 70 -132 0 -97 -57 -150 -162
-150 l-58 0 0 150 0 150 58 0 c34 0 71 -7 92 -18z"/>
<path d="M5600 1991 c0 -6 13 -11 28 -11 61 0 62 -7 62 -327 0 -268 -1 -291
-18 -306 -10 -10 -31 -17 -45 -17 -15 0 -27 -5 -27 -11 0 -18 404 -6 465 14
77 25 145 83 180 152 26 51 30 71 33 154 5 123 -19 193 -88 261 -80 80 -126
93 -377 98 -152 3 -213 1 -213 -7z m374 -45 c99 -41 151 -197 127 -376 -19
-142 -82 -220 -177 -220 -72 0 -69 -13 -72 315 l-3 295 46 0 c25 0 61 -6 79
-14z"/>
<path d="M6350 1990 c0 -5 12 -10 28 -10 15 0 38 -7 50 -16 22 -15 22 -17 22
-305 0 -276 -1 -290 -20 -309 -11 -11 -33 -20 -50 -20 -16 0 -30 -5 -30 -10 0
-7 101 -9 297 -8 l298 3 12 80 c6 44 12 94 12 110 0 28 -1 27 -23 -18 -49
-100 -113 -137 -237 -137 -97 0 -99 3 -99 161 l0 129 24 0 c64 0 110 -47 122
-122 14 -86 24 -27 24 142 0 113 -4 180 -10 180 -5 0 -10 -10 -10 -22 -1 -35
-35 -103 -61 -122 -13 -9 -38 -16 -56 -16 l-33 0 0 140 0 140 83 0 c58 0 94
-6 122 -19 49 -22 61 -36 85 -98 l19 -48 1 103 0 102 -285 0 c-183 0 -285 -4
-285 -10z"/>
<path d="M7050 1991 c0 -6 14 -11 30 -11 17 0 39 -9 50 -20 19 -19 20 -33 20
-305 0 -272 -1 -286 -20 -305 -11 -11 -33 -20 -50 -20 -16 0 -30 -4 -30 -10 0
-6 65 -10 175 -10 110 0 175 4 175 10 0 6 -13 10 -28 10 -60 0 -67 15 -70 158
l-4 129 86 7 c104 7 156 27 195 72 84 95 52 223 -69 278 -40 18 -69 21 -252
24 -147 3 -208 1 -208 -7z m351 -47 c38 -19 59 -68 59 -134 0 -97 -44 -150
-125 -150 l-35 0 0 150 0 150 35 0 c20 0 50 -7 66 -16z"/>
<path d="M8490 1990 c0 -5 13 -10 28 -10 16 0 37 -6 48 -14 18 -14 19 -29 19
-311 0 -282 -1 -297 -19 -311 -11 -8 -32 -14 -48 -14 -15 0 -28 -4 -28 -10 0
-6 65 -10 175 -10 110 0 175 4 175 10 0 6 -13 10 -28 10 -60 0 -67 15 -70 159
l-4 131 29 0 c25 -1 41 -19 138 -155 l110 -155 108 0 c109 0 130 7 78 27 -28
10 -63 53 -185 225 l-47 67 38 16 c102 43 140 142 92 243 -28 56 -78 88 -159
101 -85 14 -450 14 -450 1z m395 -44 c46 -19 66 -54 72 -123 8 -107 -46 -163
-159 -163 l-58 0 0 150 0 150 55 0 c31 0 71 -6 90 -14z"/>
<path d="M9220 1905 c0 -52 4 -95 8 -95 4 0 13 19 19 43 7 23 25 55 42 72 27
25 41 30 96 33 l65 4 0 -296 c0 -283 -1 -297 -20 -316 -11 -11 -33 -20 -50
-20 -16 0 -30 -4 -30 -10 0 -6 67 -10 180 -10 113 0 180 4 180 10 0 6 -13 10
-30 10 -17 0 -39 9 -50 20 -19 19 -20 33 -20 315 l0 295 59 0 c74 0 112 -28
138 -101 10 -27 21 -49 25 -49 5 0 8 43 8 95 l0 95 -310 0 -310 0 0 -95z"/>
<path d="M9900 1990 c0 -5 13 -10 28 -10 16 0 37 -6 48 -14 18 -13 19 -31 22
-267 5 -338 -1 -369 -69 -369 -16 0 -29 -4 -29 -10 0 -6 65 -10 175 -10 110 0
175 4 175 10 0 6 -13 10 -28 10 -61 0 -62 7 -62 327 0 268 1 291 18 306 10 10
31 17 45 17 15 0 27 5 27 10 0 6 -65 10 -175 10 -110 0 -175 -4 -175 -10z"/>
<path d="M10290 1993 c0 -5 15 -15 33 -23 29 -14 43 -40 173 -340 77 -179 145
-324 149 -323 5 0 71 137 147 304 131 288 167 351 210 365 46 14 9 24 -92 24
-67 0 -110 -4 -110 -10 0 -5 11 -10 25 -10 37 0 68 -35 60 -68 -12 -49 -169
-392 -176 -384 -4 4 -46 99 -94 212 -95 222 -96 233 -31 238 20 2 36 7 36 13
0 5 -69 9 -165 9 -91 0 -165 -3 -165 -7z"/>
<path d="M2052 1085 c-137 -39 -224 -148 -225 -285 -1 -152 72 -231 350 -374
171 -89 232 -164 205 -254 -14 -45 -64 -95 -111 -111 -164 -54 -361 80 -411
282 -7 27 -18 47 -26 47 -11 0 -14 -36 -14 -195 0 -167 2 -195 15 -195 8 0 15
4 15 9 0 18 54 61 76 61 13 0 57 -13 97 -29 163 -65 318 -46 433 53 123 105
139 300 33 420 -51 57 -123 105 -287 190 -160 83 -212 131 -212 198 0 117 125
179 263 132 89 -30 178 -134 206 -241 8 -28 17 -43 28 -43 11 0 14 6 9 23 -3
12 -6 91 -6 175 0 157 -7 182 -34 117 -19 -44 -36 -45 -140 -4 -95 37 -188 45
-264 24z"/>
<path d="M4343 1085 c-183 -40 -344 -200 -388 -386 -17 -76 -19 -197 -4 -271
39 -190 185 -348 374 -404 90 -27 268 -25 361 4 183 57 318 211 360 412 53
250 -72 514 -289 610 -108 48 -285 63 -414 35z m264 -59 c119 -56 173 -208
173 -484 -1 -316 -99 -492 -273 -492 -194 0 -287 162 -287 500 0 216 34 345
113 429 70 73 177 92 274 47z"/>
<path d="M6623 1086 c-129 -30 -258 -126 -330 -247 -41 -68 -73 -192 -73 -278
1 -255 147 -463 375 -534 99 -31 271 -31 370 0 240 75 391 309 372 578 -16
221 -151 398 -356 468 -76 25 -272 32 -358 13z m272 -62 c75 -39 133 -142 155
-276 14 -91 12 -324 -4 -410 -37 -194 -126 -288 -273 -288 -176 0 -273 178
-273 500 0 260 63 425 185 482 53 25 154 21 210 -8z"/>
<path d="M9211 1073 c-8 -16 -92 -203 -188 -418 -196 -435 -224 -496 -260
-543 -67 -90 -162 -81 -265 25 -50 52 -428 524 -428 535 0 9 349 292 414 335
26 18 66 36 87 39 23 4 39 12 39 20 0 11 -38 14 -205 14 -176 0 -205 -2 -205
-15 0 -11 11 -15 35 -15 34 0 85 -35 85 -58 0 -27 -77 -100 -265 -251 l-210
-170 -3 207 c-2 141 1 214 9 228 13 25 49 44 84 44 16 0 25 6 25 15 0 13 -36
15 -260 15 -224 0 -260 -2 -260 -15 0 -11 11 -15 35 -15 42 0 89 -22 101 -47
10 -21 18 -775 9 -850 -9 -73 -29 -94 -93 -101 -35 -3 -52 -9 -52 -18 0 -12
47 -14 265 -14 229 0 265 2 265 15 0 10 -10 15 -30 15 -37 0 -85 23 -94 45 -3
9 -6 104 -6 210 0 187 1 195 21 205 11 7 22 10 23 8 2 -2 58 -72 125 -156 159
-198 183 -235 179 -269 -2 -23 -10 -30 -40 -37 -21 -5 -38 -15 -38 -23 0 -11
83 -13 450 -13 375 0 450 2 450 14 0 9 -17 16 -48 20 -101 13 -116 60 -61 192
l31 74 191 -2 190 -3 44 -103 c29 -66 42 -109 38 -123 -8 -24 -43 -39 -91 -39
-24 0 -34 -5 -34 -15 0 -13 35 -15 255 -15 220 0 255 2 255 15 0 8 -9 15 -19
15 -33 0 -80 49 -115 119 -19 36 -118 257 -221 491 -102 234 -190 428 -194
433 -4 4 -13 -5 -20 -20z m-5 -510 l73 -168 -151 -3 c-83 -1 -153 -1 -155 1
-2 3 24 67 58 143 34 77 68 154 76 173 8 18 17 30 20 27 3 -3 39 -81 79 -173z"/>
<path d="M2660 1065 c0 -11 11 -15 40 -15 46 0 95 -21 104 -45 8 -22 8 -888 0
-910 -9 -24 -58 -45 -104 -45 -29 0 -40 -4 -40 -15 0 -13 37 -15 275 -15 238
0 275 2 275 15 0 11 -11 15 -35 15 -42 0 -89 22 -101 47 -4 10 -10 111 -12
226 l-4 207 191 0 191 0 0 -211 0 -211 -29 -29 c-24 -24 -38 -29 -75 -29 -34
0 -46 -4 -46 -15 0 -13 37 -15 275 -15 226 0 275 2 275 14 0 9 -17 15 -51 18
-34 4 -58 12 -72 27 -22 21 -22 23 -22 471 0 448 0 450 22 471 14 15 38 23 72
27 34 3 51 9 51 18 0 12 -49 14 -275 14 -238 0 -275 -2 -275 -15 0 -11 12 -15
44 -15 33 0 52 -7 75 -26 l31 -26 0 -199 0 -199 -190 0 -190 0 0 168 c1 244
10 271 99 280 34 3 51 9 51 18 0 12 -49 14 -275 14 -238 0 -275 -2 -275 -15z"/>
<path d="M5180 930 c0 -154 9 -187 31 -108 24 93 74 155 138 177 19 6 65 11
102 11 l69 0 0 -452 c-1 -340 -4 -457 -13 -469 -19 -25 -53 -39 -96 -39 -30 0
-41 -4 -41 -15 0 -13 37 -15 275 -15 238 0 275 2 275 15 0 11 -11 15 -37 15
-57 0 -99 30 -106 76 -4 22 -7 229 -7 462 l0 422 80 0 c87 0 135 -17 177 -62
22 -24 55 -92 67 -140 3 -16 11 -28 16 -28 6 0 10 59 10 150 l0 150 -470 0
-470 0 0 -150z"/>
<path d="M9820 1066 c0 -8 16 -16 40 -20 29 -4 50 -18 80 -48 l40 -42 0 -398
c0 -339 -2 -403 -16 -437 -17 -44 -61 -71 -113 -71 -21 0 -31 -5 -31 -15 0
-13 27 -15 185 -15 158 0 185 2 185 15 0 10 -10 15 -32 15 -18 0 -48 9 -66 20
-61 37 -63 50 -60 450 l3 361 359 -441 c197 -242 362 -440 367 -440 5 0 9 195
9 438 0 240 4 463 10 496 11 71 30 93 87 108 25 6 43 16 43 24 0 11 -32 14
-170 14 -137 0 -170 -3 -170 -14 0 -8 16 -15 41 -19 55 -7 96 -47 104 -101 3
-23 5 -149 3 -281 l-3 -240 -260 328 -260 327 -187 0 c-153 0 -188 -3 -188
-14z"/>
</g>
</svg>
